<svg width="130" height="40" fill="none" xmlns="http://www.w3.org/2000/svg"><rect width="130" height="40" rx="8" fill="#000"/><rect x=".5" y=".5" width="129" height="39" rx="7.5" stroke="#A6A6A6"/><path d="M36.5688 11.2534h.7941c.1367.0171.2755.0056.4076-.0339.132-.0394.2545-.1059.3597-.1953.1052-.0894.1908-.1996.2515-.3239.0607-.1243.0951-.2598.101-.3981 0-.55027-.4121-.90574-1.111-.90574-.1401-.01966-.2826-.01093-.4193.02568-.1366.03661-.2646.10035-.3763.18746-.1117.08712-.205.19584-.2742.31975-.0692.12395-.113.26045-.1288.40165h-.8719c.015-.2563.0824-.50672.1979-.73573.1155-.22901.2767-.43168.4736-.59538.1969-.16371.4252-.28495.6707-.35617.2455-.07122.503-.0909.7564-.05781 1.1694 0 1.9928.65771 1.9928 1.60449.0027.3172-.1029.6257-.2993.8741-.1963.2484-.4715.4215-.7797.4906v.0704c.3653.0162.7093.1772.9569.4475.2475.2704.3784.6283.3641.9953-.027.2639-.1062.5197-.2329.7525-.1267.2327-.2984.4377-.505.6029s-.444.2874-.6982.3592c-.2541.0719-.5201.0921-.7821.0594-.2626.0359-.5297.0184-.7854-.0516-.2557-.0699-.4948-.1909-.703-.3556-.2082-.1648-.3812-.37-.5087-.6034-.1276-.2334-.2071-.4902-.2338-.7551h.8856c.0535.5708.5754.939 1.3453.939.7699 0 1.2724-.4135 1.2724-.9965 0-.5914-.4734-.9556-1.3006-.9556h-.8194v-.8101ZM40.6409 13.4243c0-.8105.6017-1.2778 1.6671-1.3442l1.2141-.0703v-.3887c0-.4756-.312-.7441-.9176-.7441-.4938 0-.835.1821-.9342.5004h-.8563c.0904-.7734.8155-1.2695 1.8323-1.2695 1.1237 0 1.7574.562 1.7574 1.5132v3.0767h-.8525v-.6329h-.0699c-.1421.227-.3416.4121-.5781.5363-.2365.1242-.5016.1831-.7682.1707-.1882.0197-.3784-.0005-.5583-.0592s-.3456-.1546-.4864-.2816c-.1407-.1269-.2534-.2821-.3308-.4555-.0775-.1735-.1178-.3612-.1186-.5513Zm2.8812-.3848v-.3764l-1.0946.0703c-.6172.0415-.8972.2524-.8972.6494 0 .4053.3499.6411.8312.6411.1409.0144.2834.0001.4188-.042.1353-.0421.2609-.1111.3692-.203.1083-.0918.1971-.2046.2611-.3316.064-.1271.1019-.2657.1115-.4078ZM46.7511 10.9429v3.7549h-.8846v-4.503h2.9512v.748l-2.0666.0001ZM54.1786 12.4443c0 1.4307-.7203 2.3276-1.8518 2.3276-.2777.0191-.5551-.042-.7995-.176-.2444-.134-.4455-.3353-.5798-.5803h-.07v2.1792h-.8846v-6h.8515v.7442h.0661c.1367-.2536.3405-.4643.5889-.6088.2484-.1445.5317-.2172.8187-.2101 1.1402 0 1.8605.893 1.8605 2.3242Zm-.9099 0c0-.9512-.4481-1.5259-1.1975-1.5259-.7446 0-1.2102.5869-1.2102 1.5298 0 .9385.4656 1.5259 1.2063 1.5259.7533 0 1.2014-.5747 1.2014-1.5298ZM55.3565 16.3106v-.7652c.0957.0122.1922.0178.2887.0166.1884.014.3754-.0424.525-.1583.1497-.116.2514-.2834.2857-.4701l.0661-.2192-1.6224-4.5196h.9633l1.1238 3.5767h.0699l1.1198-3.5767h.9381l-1.671 4.689c-.383 1.0957-.8068 1.4473-1.7205 1.4473-.0739 0-.2838-.0083-.3665-.0205ZM59.8038 13.4199h.8806c.0865.397.4569.604.975.604.5891 0 .9507-.2607.9507-.666 0-.4341-.3247-.6411-.9507-.6411h-.6707v-.6904h.659c.5347 0 .8068-.2066.8068-.583 0-.3306-.2634-.583-.8068-.583-.4947 0-.8563.2109-.9137.5664h-.8525c.0638-.4085.2845-.7755.6148-1.0221.3303-.2467.7437-.3532 1.1514-.2968 1.0654 0 1.6749.4839 1.6749 1.2447.0049.2118-.0626.4189-.1914.5867-.1288.1678-.3111.2861-.5163.3351v.0703c.2443.0317.4686.1524.6302.3391.1616.1868.2494.4267.2466.6741 0 .856-.7251 1.4224-1.8323 1.4224-.9789 0-1.774-.4507-1.8556-1.3604ZM64.7652 14.6978v-4.503h.8768v3.0972h.07l2.0656-3.0972h.8768v4.503h-.8768V11.584h-.0661l-2.0695 3.1138h-.8768ZM73.4847 10.9428h-1.4115v3.7549h-.8855v-3.7549h-1.4115v-.748h3.7085v.748ZM78.2499 13.482c-.1205.4115-.3811.7674-.7363 1.0055-.3552.2382-.7823.3434-1.2068.2972-.2953.0079-.5888-.0489-.86-.1665-.2713-.1175-.5138-.2929-.7108-.5141-.197-.2211-.3437-.4827-.43-.7665-.0863-.2838-.1101-.5831-.0697-.8771-.0393-.2949-.0151-.5948.071-.8795.0861-.2846.232-.5474.428-.7705.1959-.223.4373-.4012.7078-.5224.2704-.1212.5637-.1827.8598-.1801 1.2471 0 2.0005.856 2.0005 2.27v.3101h-3.165v.0498c-.014.1653.0065.3317.0603.4885.0539.1568.1397.3006.2521.4221.1125.1215.2489.218.4007.2833.1518.0654.3155.0981.4806.0961.2114.0254.4256-.013.6153-.1102.1897-.0972.3463-.2488.45-.4357h.8525Zm-3.1116-1.4512h2.263c.0112-.151-.0092-.3027-.0599-.4454-.0506-.1427-.1304-.2731-.2342-.383-.1038-.1098-.2294-.1966-.3685-.2549-.1392-.0582-.289-.0865-.4397-.0832-.153-.002-.3049.0267-.4467.0846-.1418.0579-.2706.1437-.3788.2525-.1082.1087-.1936.2382-.2512.3806-.0575.1425-.0861.2951-.0839.4488h-.0001ZM81.9997 10.1948h2.0209c.8768 0 1.391.4463 1.391 1.145.0014.2217-.0731.4372-.2109.6103-.1378.1732-.3307.2935-.5463.3409v.0703c.2618.0166.5072.1336.6856.3268.1783.1932.276.4478.2729.7113 0 .7856-.5881 1.2983-1.5718 1.2983h-2.0414v-4.5029Zm.8768.6822v1.166h.8768c.5347 0 .7903-.2066.7903-.5874 0-.3511-.2226-.5787-.6921-.5787l-.975.0001Zm0 1.8193v1.3193h1.0489c.523 0 .8029-.2319.8029-.6577 0-.4507-.3168-.6616-.9137-.6616h-.9381ZM24.6547 20.3007c.0107-.8347.2314-1.653.6415-2.379.4101-.726.9964-1.3359 1.7042-1.7731-.4497-.6451-1.0429-1.1761-1.7325-1.5506-.6896-.3746-1.4567-.5824-2.2402-.607-1.6715-.1763-3.2919 1.0048-4.1437 1.0048-.8682 0-2.1796-.9873-3.5918-.9582-.9135.0297-1.8037.2965-2.5839.7746-.7803.4781-1.424 1.151-1.8684 1.9533-1.92503 3.3484-.4891 8.2695 1.3549 10.9761.9227 1.3253 2.0009 2.8058 3.4118 2.7533 1.3807-.0575 1.8963-.8845 3.5629-.8845 1.6511 0 2.1349.8845 3.5744.8511 1.4815-.0241 2.4149-1.3312 3.3052-2.6691.6629-.9444 1.173-1.9881 1.5114-3.0925-.8607-.3658-1.5952-.9779-2.112-1.7602-.5167-.7823-.7928-1.7001-.7938-2.639ZM21.9358 12.2108c.8077-.9742 1.2057-2.22635 1.1093-3.49059-1.2341.13023-2.374.72278-3.1927 1.65959-.4003.4577-.7069.9901-.9022 1.5669-.1954.5768-.2756 1.1866-.2363 1.7945.6173.0064 1.228-.128 1.7861-.3931.558-.2651 1.0489-.6539 1.4358-1.1373ZM42.1072 27.1398h-4.7116l-1.1314 3.3565h-1.9956l4.4626-12.4181h2.0734l4.4627 12.4181h-2.0297l-1.1304-3.3565Zm-4.2236-1.5488h3.7347l-1.8411-5.4473h-.0515l-1.8421 5.4473ZM54.9052 25.9697c0 2.8135-1.4989 4.6211-3.7609 4.6211-.573.0301-1.1428-.1025-1.6443-.3826-.5015-.2802-.9143-.6965-1.1912-1.2014h-.0428v4.4844h-1.8498V21.4423h1.7906v1.5059h.034c.2896-.5025.7094-.9166 1.2147-1.1985.5053-.2818 1.0771-.4208 1.6548-.4021 2.2872 0 3.7949 1.8164 3.7949 4.6221Zm-1.9014 0c0-1.833-.9429-3.0381-2.3815-3.0381-1.4133 0-2.364 1.2305-2.364 3.0381 0 1.8242.9507 3.0459 2.364 3.0459 1.4387 0 2.3815-1.1963 2.3815-3.0459ZM64.8241 25.9697c0 2.8135-1.4989 4.6211-3.7609 4.6211-.573.0301-1.1428-.1025-1.6443-.3827-.5015-.2801-.9143-.6964-1.1911-1.2013h-.0428v4.4844h-1.8499V21.4423h1.7906v1.5059h.034c.2896-.5025.7094-.9167 1.2147-1.1985.5052-.2818 1.0771-.4208 1.6548-.4021 2.2872 0 3.7949 1.8164 3.7949 4.6221Zm-1.9013 0c0-1.833-.9429-3.0381-2.3816-3.0381-1.4133 0-2.364 1.2305-2.364 3.0381 0 1.8242.9507 3.0459 2.364 3.0459 1.4387 0 2.3816-1.1963 2.3816-3.0459ZM71.3795 27.0362c.137 1.2314 1.3278 2.04 2.955 2.04 1.5592 0 2.6809-.8086 2.6809-1.919 0-.9638-.6765-1.541-2.2785-1.9365l-1.6019-.3877c-2.2697-.5508-3.3234-1.6172-3.3234-3.3476 0-2.1426 1.8585-3.6143 4.4976-3.6143 2.6119 0 4.4024 1.4717 4.4627 3.6143h-1.8673c-.1118-1.2393-1.1315-1.9873-2.6216-1.9873-1.4902 0-2.5099.7568-2.5099 1.8584 0 .8779.6513 1.3945 2.2445 1.79l1.3618.3359c2.5361.6025 3.5898 1.626 3.5898 3.4424 0 2.3232-1.842 3.7783-4.7718 3.7783-2.7412 0-4.5919-1.4209-4.7115-3.667l1.8936.0001ZM82.9614 19.2998v2.1426h1.7137v1.4717h-1.7137v4.9912c0 .7754.3431 1.1367 1.0964 1.1367.2035-.0036.4066-.0179.6085-.043v1.4629c-.3387.0636-.6829.0924-1.0274.0859-1.8245 0-2.5361-.6885-2.5361-2.4443v-5.1894h-1.3103v-1.4717h1.3103v-2.1426h1.8586ZM85.6676 25.9697c0-2.8486 1.6699-4.6386 4.2741-4.6386 2.6128 0 4.2751 1.79 4.2751 4.6386 0 2.8565-1.6535 4.6387-4.2751 4.6387-2.6207 0-4.2741-1.7822-4.2741-4.6387Zm6.6643 0c0-1.9541-.8913-3.1074-2.3902-3.1074-1.4989 0-2.3893 1.1621-2.3893 3.1074 0 1.9619.8904 3.1065 2.3893 3.1065s2.3902-1.1446 2.3902-3.1065ZM95.7419 21.4424h1.7642v1.541h.0428c.1194-.4813.4-.9066.7948-1.2045.3948-.2979.8795-.4502 1.3729-.4313.2132-.0007.4254.0226.6334.0694v1.7383c-.269-.0827-.5495-.1206-.8308-.1123-.2687-.011-.5366.0366-.7853.1395-.2487.1029-.4723.2586-.6554.4565-.1831.1979-.3214.4333-.4055.6899-.084.2567-.1118.5286-.0813.7971v5.3701h-1.8499l.0001-9.0537ZM108.879 27.8369c-.248 1.6436-1.842 2.7715-3.88 2.7715-2.622 0-4.249-1.7647-4.249-4.5957 0-2.8398 1.636-4.6816 4.171-4.6816 2.494 0 4.061 1.7207 4.061 4.4658v.6367h-6.365v.1123c-.029.3332.013.6689.122.9847.11.3158.285.6046.515.8472.229.2425.507.4333.815.5596.309.1263.64.1852.973.1729.437.0412.876-.0605 1.251-.29.375-.2294.666-.5743.83-.9834h1.756Zm-6.253-2.7021h4.506c.016-.2996-.029-.5994-.133-.8807-.104-.2812-.265-.5377-.473-.7535-.207-.2157-.457-.3861-.733-.5003-.276-.1142-.573-.1698-.872-.1634-.301-.0018-.6.0564-.878.1711-.279.1147-.532.2838-.746.4974-.213.2137-.382.4676-.498.7473-.115.2796-.174.5794-.173.8821Z" fill="#fff"/></svg>