<svg width="40" height="40" fill="none" xmlns="http://www.w3.org/2000/svg"><path fill="#4064AD" d="M0 0h40v40H0z"/><path d="M13.4151 20.8476h2.821v11.733c0 .2317.1858.4194.4151.4194h4.783c.2293 0 .4151-.1877.4151-.4194V20.9029h3.243c.2108 0 .3883-.1599.4124-.3715l.4925-4.3195c.0135-.1188-.0237-.2378-.1025-.327-.0787-.0892-.1915-.1403-.3098-.1403h-3.7354v-2.7077c0-.8162.435-1.2302 1.2931-1.2302h2.4423c.2293 0 .4151-.1877.4151-.4193V7.42245c0-.23166-.1858-.41935-.4151-.41935H22.219C22.1953 7.00193 22.1425 7 22.0648 7c-.584 0-2.614.11583-4.2176 1.60621-1.7767 1.65159-1.5297 3.62909-1.4707 3.97199v3.1663h-2.9614c-.2293 0-.4151.1877-.4151.4193v4.2644c.0001.2316.1858.4194.4151.4194Z" fill="#fff"/></svg>