<svg width="40" height="40" fill="none" xmlns="http://www.w3.org/2000/svg"><path fill="url(#a)" d="M0 0h40v40H0z"/><path d="M25.8248 7H14.1749C10.2187 7 7 10.2188 7 14.1751v11.6498C7 29.7813 10.2187 33 14.1749 33h11.6499C29.7813 33 33 29.7812 33 25.8249V14.1751C33.0002 10.2188 29.7813 7 25.8248 7Zm4.8685 18.8249c0 2.6844-2.184 4.8683-4.8684 4.8683h-11.65c-2.6842.0001-4.86805-2.1839-4.86805-4.8683V14.1751c0-2.6843 2.18385-4.86825 4.86805-4.86825h11.6499c2.6844 0 4.8684 2.18395 4.8684 4.86825v11.6498h.0001Z" fill="#fff"/><path d="M20 13.3009c-3.6942 0-6.6995 3.0054-6.6995 6.6995 0 3.6941 3.0053 6.6993 6.6995 6.6993 3.6942 0 6.6996-3.0052 6.6996-6.6993S23.6942 13.3009 20 13.3009Zm0 11.0918c-2.422 0-4.3927-1.9704-4.3927-4.3924 0-2.4222 1.9705-4.3927 4.3927-4.3927 2.4222 0 4.3927 1.9705 4.3927 4.3927 0 2.422-1.9706 4.3924-4.3927 4.3924ZM26.9811 11.3447c-.4444 0-.881.18-1.1949.4952-.3155.3138-.4968.7505-.4968 1.1965 0 .4446.1815.8812.4968 1.1965.3137.3137.7505.4952 1.1949.4952.446 0 .8812-.1815 1.1965-.4952.3153-.3153.4952-.752.4952-1.1965 0-.446-.1799-.8827-.4952-1.1965-.3137-.3152-.7505-.4952-1.1965-.4952Z" fill="#fff"/><defs><linearGradient id="a" x1="2.68567" y1="37.394" x2="39.7484" y2="5.31035" gradientUnits="userSpaceOnUse"><stop stop-color="#F1C800"/><stop offset=".359375" stop-color="#F02501"/><stop offset=".671875" stop-color="#C837AB"/><stop offset="1" stop-color="#7C39AD"/></linearGradient></defs></svg>