<svg width="40" height="40" fill="none" xmlns="http://www.w3.org/2000/svg"><path fill="#FF9800" d="M0 0h40v40H0z"/><path d="M12.1144 20.9545c-.6641 1.3054.0899 1.9294 1.8102 2.9954 1.4625.9035 3.4829 1.2339 4.7808 1.366-.532.5114 1.9055-1.8329-5.1144 4.9194-1.4885 1.4268.9078 3.7158 2.3952 2.3194l4.0267-3.8837c1.5416 1.4831 3.0193 2.9044 4.0268 3.8892 1.4885 1.4018 3.8837-.8678 2.4115-2.3195-.1105-.105-5.4568-5.2335-5.1307-4.9193 1.3141-.1322 3.3042-.4821 4.7493-1.3661l-.0011-.0011c1.7204-1.0714 2.4744-1.6943 1.82-2.9997-.3954-.741-1.4614-1.3607-2.8805-.2893 0 0-1.9164 1.4679-5.0072 1.4679-3.0918 0-5.0071-1.4679-5.0071-1.4679-1.4181-1.0768-2.4884-.4517-2.8795.2893Z" fill="#fff"/><path d="M19.9982 20.1538c3.7678 0 6.8445-2.9445 6.8445-6.5693C26.8427 9.94448 23.766 7 19.9982 7c-3.7689 0-6.8455 2.94448-6.8455 6.5845 0 3.6248 3.0766 6.5693 6.8455 6.5693Zm0-9.8182c1.8514 0 3.3616 1.4527 3.3616 3.2489 0 1.781-1.5102 3.2337-3.3616 3.2337-1.8514 0-3.3615-1.4527-3.3615-3.2337-.0011-1.7973 1.509-3.2489 3.3615-3.2489Z" fill="#fff"/></svg>