<svg width="159" height="40" fill="none" xmlns="http://www.w3.org/2000/svg"><g clip-path="url(#a)" fill="#1A9F29"><path d="M41.5896 18.4918c.657.7214 1.4454 1.2459 2.4309 1.6394.9856.3934 2.1025.5902 3.4823.5902.657 0 1.314-.0656 1.8396-.1312.5914-.0656 1.0513-.1967 1.5112-.3934.4599-.1312.8541-.3279 1.2484-.4591.3285-.1967.657-.3278.9198-.459l-.4599-.9836c-.2628.1312-.5256.2623-.7885.3935-.2628.1311-.5256.1967-.8541.3278-.3285.0656-.657.1968-1.0512.1968-.3942.0655-.8542.0655-1.3798.0655-.9855 0-1.8397-.1967-2.431-.5901-.657-.3935-1.1169-.9181-1.5111-1.5082-.3285-.6558-.5914-1.4427-.7228-2.2951-.1314-.918-.1971-1.8361-.1971-2.8853 0-.7868.0657-1.6393.1314-2.49176.0657-.85246.2628-1.57377.5914-2.22951.3285-.65574.7227-1.18033 1.314-1.63934.5913-.39344 1.3798-.65574 2.3653-.65574.9198 0 1.7083.2623 2.3653.72131.657.45902 1.0512 1.2459 1.2483 2.22951h1.0513V4.72136c-.3285-.13115-.6571-.2623-1.0513-.39345-.3942-.13114-.7884-.19672-1.2483-.26229-.4599-.06558-.8541-.06558-1.3141-.13115-.3942 0-.7884-.06557-1.1169-.06557-1.4455 0-2.6281.19672-3.6793.59016-.9856.39344-1.8397.98361-2.4967 1.70492-.6571.72131-1.117 1.63934-1.4455 2.68852s-.4599 2.2951-.4599 3.6066c0 1.2459.1314 2.4262.4599 3.4098.1971 1.1148.657 1.9672 1.2484 2.6229ZM105.847 20.1967c.788-.0656 1.576-.3279 2.168-.6558.657-.3934 1.182-.918 1.511-1.6393.394-.7213.591-1.7049.591-2.9508 0-.9181-.131-1.6394-.394-2.2951-.263-.6557-.657-1.1148-1.248-1.5738-.592-.3934-1.314-.6557-2.234-.8524-.92-.1968-2.037-.26233-3.351-.26233h-1.38V6.09832c0-.39345.066-.65574.263-.78689s.526-.13115 1.051-.13115h1.971c.592 0 1.117 0 1.512.06558.394.06557.722.13115.919.32787.263.19672.46.45901.592.78688.131.32787.328.78689.46 1.37705h.854V4.1311H97.0425v.52459c.0657 0 .1314.06558.3285.06558.1971.06557.3285.13114.3942.19672.0657.06557.1314.19672.1971.39344 0 .19672.0657.39344.0657.65574V18.4918c0 .2623 0 .5246-.0657.6557 0 .1967-.0657.3279-.1971.3934-.0657.0656-.1971.1968-.3942.1968-.1971.0655-.2628.0655-.3285.0655v.5246h6.1105c.985 0 1.839 0 2.694-.1311Zm-4.008-1.1803c-.132-.1312-.197-.2623-.197-.4591 0-.1967-.066-.459-.066-.7869v-6.8196h1.38c1.248 0 2.168.3278 2.694.9836.525.6557.788 1.7049.788 3.1475 0 .9836-.066 1.7049-.263 2.2951-.197.5902-.394.9836-.723 1.3115-.328.2623-.657.459-.985.5901-.394.0656-.789.1312-1.183.1312-.394-.0656-.723-.0656-.92-.1312-.197-.0655-.394-.1311-.525-.2622ZM88.5669 19.8032c-.0657 0-.1314-.0655-.3285-.0655-.1972-.0656-.3286-.1312-.3943-.1968-.0657-.0655-.1314-.1967-.1971-.3934 0-.1967-.0657-.3934-.0657-.6557v-4.5246h1.6426c.8541 0 1.6426-.0656 2.431-.1968.7884-.1311 1.4454-.3934 2.0368-.7213.5913-.3934 1.0512-.8524 1.3797-1.5737.3285-.6558.5256-1.57381.5256-2.68856 0-1.04918-.1971-1.90164-.4599-2.4918-.3285-.59017-.7884-1.11476-1.314-1.44263-.5257-.32786-1.1827-.52459-1.9054-.59016-.7227-.06557-1.4455-.13115-2.2339-.13115H83.245v.52459c.0657 0 .1314.06558.3285.06558.1971.06557.3285.13114.3942.19672.0657.06557.1314.19672.1971.39344 0 .19672.0657.39344.0657.65574V18.4262c0 .2623 0 .5246-.0657.6557 0 .1967-.0657.3279-.1971.3935-.0657.0655-.1971.1967-.3942.1967-.1971.0656-.2628.0656-.3285.0656v.5245h5.3219v-.459ZM87.647 5.96717c0-.13115 0-.2623.0657-.39344 0-.13115.0657-.19672.1314-.2623.0657-.06557.1971-.13115.3943-.13115.1971 0 .3942-.06557.7227-.06557.3942 0 .7884.06557 1.1826.13115.3942.13114.657.32787.9856.59016.2628.2623.4599.65574.657 1.11476.1314.45901.1971 1.04918.1971 1.70491 0 1.37701-.1971 2.42621-.5913 3.14751-.3942.7213-1.117 1.1148-2.1025 1.1148H87.647V5.96717ZM81.077 16.5901h-1.0512c-.1314.6558-.2629 1.1148-.3943 1.5082-.1314.3935-.2628.6558-.5256.8525-.1971.1967-.5256.3278-.9198.3278-.3942.0656-.9198.0656-1.6426.0656-.657 0-1.1826 0-1.5111-.0656-.3942-.0655-.6571-.1311-.8542-.2623-.1971-.1311-.3285-.3278-.3285-.5245-.0657-.2623-.0657-.5246-.0657-.9181V12.459h2.8252c.2628 0 .5257.0655.7885.0655.2628 0 .5256.0656.7884.1312.2628.0656.4599.1311.657.2623v-2.0984c-.1971.1312-.3942.1967-.657.2623-.2628.0656-.5256.1312-.7884.1312-.2628.0655-.5257.0655-.7885.0655H73.784V5.90159c0-.32786.0657-.59016.1314-.72131.1314-.13114.3285-.13114.6571-.13114h1.7739c.5913 0 1.117 0 1.5112.06557.3942.06557.7227.13115.9198.32787.2628.19672.4599.45901.5913.78688.1314.32787.3285.78689.4599 1.37705h.8542V4.1311H69.382v.52459c.0657 0 .1314.06558.3285.06558.1971.06557.3285.13114.3942.19672.0657.06557.1314.19672.1971.39344 0 .19672.0657.39344.0657.65574V18.4262c0 .2623 0 .5246-.0657.6557 0 .1967-.0657.3279-.1971.3935-.0657.0655-.1971.1967-.3942.1967-.1971.0656-.2628.0656-.3285.0656v.5245h11.695v-3.6721ZM63.2057 20.1967c.7884-.0656 1.5769-.3279 2.1682-.6558.657-.3934 1.1826-.918 1.5768-1.6393.3943-.7213.5914-1.7049.5914-2.9508 0-.9181-.1314-1.6394-.3942-2.2951-.2629-.6557-.6571-1.1148-1.2484-1.5738-.5913-.3934-1.314-.6557-2.2339-.8524-.9198-.1968-2.0367-.26233-3.3508-.26233H58.935V6.09832c0-.39345.0658-.65574.2629-.78689.1971-.13115.5256-.13115 1.0512-.13115h1.9711c.5913 0 1.1169 0 1.5111.06558.3942.06557.7228.13115.9199.32787.2628.19672.4599.45901.5913.78688.1314.32787.3285.78689.4599 1.37705h.8541V4.1311H54.4673v.52459c.0657 0 .1314.06558.3285.06558.1971.06557.3285.13114.3942.19672.0657.06557.1314.19672.1971.39344 0 .19672.0657.39344.0657.65574V18.4262c0 .2623 0 .459-.0657.6557 0 .1967-.0657.3279-.1971.3935-.0657.0655-.1971.1967-.3942.1967-.1971.0656-.2628.0656-.3285.0656v.5901h6.1103c.9855 0 1.774 0 2.6281-.1311Zm-4.0078-1.1803c-.1314-.1312-.1971-.2623-.1971-.4591 0-.1967-.0658-.459-.0658-.7869v-6.8196h1.3798c1.2483 0 2.1682.3278 2.6938.9836.5256.6557.7884 1.7049.7884 3.1475 0 .9836-.0657 1.7049-.2628 2.2951-.1971.5902-.3942.9836-.7227 1.3115-.3285.2623-.657.459-.9855.5901-.3943.0656-.7885.1312-1.1827.1312-.3942-.0656-.657-.0656-.9198-.1312-.1971-.0655-.3942-.1311-.5256-.2622ZM158.869 24.9181H39.75v1.5738h119.119v-1.5738ZM149.342 14.2295c.328.4591.591.8525.92 1.2459.262.3935.591.7869.854 1.1804.263.3934.525.7869.854 1.1803.328.459.591.8525.854 1.3115.263.3934.46.8524.657 1.2459l5.519.0655c-.591-.5901-1.117-1.1803-1.708-1.7704-.526-.5902-.986-1.1148-1.314-1.4427-.526-.5901-.986-1.1147-1.38-1.5737-.46-.5246-.854-.9836-1.248-1.4427-.395-.459-.789-.9836-1.117-1.4426-.329-.459-.723-1.0492-1.052-1.5738l.263-.3278c.395-.5246.854-1.0492 1.38-1.70494.526-.65574 1.051-1.31147 1.643-1.90164.591-.65574 1.117-1.2459 1.708-1.77049.591-.52459 1.051-.91803 1.511-1.2459h-3.811c-.131.32787-.328.72131-.591 1.18033-.263.45901-.526.9836-.92 1.50819-.328.52459-.723 1.11476-1.051 1.70492-.394.59016-.723 1.11475-1.117 1.63933-.394.5246-.723 1.0492-1.051 1.4426-.329.4591-.592.7869-.789 1.1148.329.459.657.918.986 1.377Z"/><path d="M148.882 19.8032c-.066 0-.132-.0655-.329-.0655-.197-.0656-.328-.1312-.394-.1968-.066-.0655-.131-.1967-.197-.3934 0-.1967-.066-.3934-.066-.6557V6.03274c0-.26229 0-.52459.066-.65574 0-.19672.066-.32786.197-.39344.066-.06557.197-.13115.394-.19672.197-.06557.263-.06557.329-.06557V4.1311h-5.322v.52459c.066 0 .131.06558.328.06558.198.06557.329.13114.395.19672.065.06557.131.19672.197.39344 0 .19672.065.39344.065.65574V18.4262c0 .2623 0 .5246-.065.6557 0 .1967-.066.3279-.197.3935-.066.0655-.197.1967-.395.1967-.197.0656-.262.0656-.328.0656v.5245h5.322v-.459ZM113.534 18.3607c.197-.918.591-2.2295 1.117-3.8688h5.19l.723 2.0983c.328.9181.591 1.7049.723 2.3607.197.6557.328 1.1147.328 1.4426h4.139c-.197-.3279-.394-.7869-.657-1.3115-.262-.5246-.591-1.3115-.919-2.2951l-3.745-10.62291c-.198-.45902-.263-.85246-.329-1.18033-.066-.32787-.066-.59016-.131-.78688h-4.665v.52459c.065 0 .131.06557.328.06557.197.06558.329.13115.394.19672.066.06558.132.19672.198.39344v.32787c0 .39345-.066.78689-.198 1.04918l-2.628 6.42625c-.46 1.1803-.919 2.2295-1.248 3.0164-.328.7869-.657 1.5082-.854 2.0328-.263.5246-.46.9836-.657 1.3114-.197.3279-.329.5902-.46.8525h2.957c.065-.459.197-1.1148.394-2.0328Zm3.745-11.54097 2.168 6.55737h-4.468l2.3-6.55737ZM131.996 19.8032h-.131c-.066 0-.131-.0655-.329-.0655-.197-.0656-.328-.1312-.394-.1968-.065-.0655-.131-.1967-.197-.3934 0-.1967-.066-.3934-.066-.6557v-6.2295h6.308v6.1639c0 .2623 0 .5246-.066.6557 0 .1967-.066.3279-.197.3935-.066.0655-.197.1967-.394.1967-.197.0656-.263.0656-.329.0656v.5246h5.322v-.5246c-.066 0-.131-.0656-.328-.0656-.197-.0656-.329-.1312-.395-.1967-.065-.0656-.131-.1968-.197-.3935 0-.1967-.065-.3934-.065-.6557V5.9016c0-.2623 0-.52459.065-.65574 0-.19672.066-.32787.197-.39344.066-.06558.198-.13115.395-.19673.197-.06557.262-.06557.328-.06557V4.1311h-5.19v.52459c.065 0 .131.06558.328.06558.197.06557.329.13114.394.19672.066.06557.132.19672.198.39344 0 .19672.065.39344.065.65574v5.18033h-6.307V5.96717c0-.2623 0-.52459.066-.65574 0-.19672.065-.32787.197-.39344.065-.06558.197-.13115.394-.19672.197-.06558.263-.06558.328-.06558V4.1311h-5.322v.52459c.066 0 .132.06558.329.06558.197.06557.328.13114.394.19672.066.06557.132.19672.197.39344 0 .19672.066.39344.066.65574V18.4918c0 .2623 0 .459-.066.6557 0 .1967-.065.3279-.197.3934-.066.0656-.197.1968-.394.1968-.197.0655-.263.0655-.329.0655v.5246h5.322v-.5246ZM28.909 5.83603c-.3285-.45901-.657-.91803-.9855-1.37705L9.72392 14.8852.919789 9.83603C.722681 10.4262.591276 10.9508.525574 11.5409l9.264046 5.3115L28.909 5.83603Z"/><path d="M9.72406 18.8196.262907 13.377c-.065702.3279-.065702.7213-.065702 1.0492 0 8.5902 6.964465 15.6066 15.637195 15.6066 8.607 0 15.6372-6.9509 15.6372-15.6066 0-2.5574-.5913-4.9836-1.7083-7.08196L9.72406 18.8196Z"/><path d="M26.6751 3.14749c-.4599-.45902-.9198-.78688-1.3797-1.18033L9.72389 10.9508 2.2338 6.68847c-.26281.45902-.52562.98361-.78843 1.5082L9.65818 12.918 26.6751 3.14749Z"/><path d="M23.7187.918033C23.1274.590164 22.536.262295 21.879 0L9.72406 7.01639 4.27075 3.93443c-.39421.39344-.72273.85246-1.11694 1.31147l6.50454 3.73771L23.7187.918033ZM106.438 38.3607l1.248-6.4263h2.037c1.183 0 1.708.5902 1.708 1.5082 0 .8525-.525 1.3115-1.511 1.6394.657.2623 1.051.7213 1.051 1.377 0 1.1804-.788 1.8361-2.365 1.8361h-2.168v.0656Zm.788-.5902h1.512c.985 0 1.576-.5246 1.576-1.3115 0-.5901-.525-1.1803-1.511-1.1803h-1.182l-.395 2.4918Zm.592-3.0164h1.314c1.117 0 1.708-.5246 1.708-1.3115 0-.6557-.394-.9836-1.183-.9836h-1.314l-.525 2.2951ZM115.439 37.1804c-.394.7213-.854 1.2459-1.774 1.2459-1.051 0-1.774-.8525-1.774-2.0328 0-1.4426.92-2.6885 2.169-2.6885.919 0 1.379.5245 1.642 1.3114l-.591.1312c-.197-.5902-.526-.9181-1.051-.9181-.855 0-1.577.9181-1.577 2.2296 0 .918.46 1.377 1.248 1.377.723 0 .986-.3934 1.248-.8525l.46.1968ZM116.819 36.1312v.3279c0 .918.46 1.4426 1.183 1.4426.657 0 1.051-.459 1.445-1.0492l.526.2623c-.526.7869-1.052 1.3115-2.037 1.3115-1.051 0-1.708-.7869-1.708-1.9672 0-1.5738.919-2.7541 2.233-2.7541 1.052 0 1.643.6557 1.643 1.836 0 .1967-.066.3935-.066.5902h-3.219Zm2.694-.5246c.065-.1312 0-.1967 0-.2623 0-.5246-.329-1.0492-1.052-1.0492-.854 0-1.248.5246-1.511 1.3771h2.563v-.0656ZM121.615 33.8361h2.563l-.066.5246h-1.971l-.789 3.9999h-.591l.854-4.5245ZM123.652 37.8361l1.905-4h.92l.526 4h.46l-.263 1.377h-.46l.066-.8525h-3.088l-.263.8525h-.46l.263-1.377h.394Zm2.694 0-.329-3.4099h-.131l-1.577 3.4099h2.037ZM131.208 35.6721c0-.1967.066-.3934.066-.5245 0-.5246-.395-.8525-.986-.8525-.394 0-.723.1967-.986.5246l-.394-.3935c.394-.3278.854-.6557 1.511-.6557.92 0 1.512.5902 1.512 1.3115 0 .1311-.066.3934-.066.7213l-.329 1.5082c-.131.5246-.131.8525-.131 1.1147h-.591c-.066-.1311-.066-.3278-.066-.5245-.394.3278-.788.5901-1.314.5901-.723 0-1.314-.5901-1.314-1.3115 0-.918.854-1.5082 2.431-1.5082h.657Zm-.132.4591h-.459c-1.249 0-1.906.3278-1.906.9836 0 .459.329.7869.789.7869s.854-.2623 1.314-.5902l.262-1.1803ZM136.661 34.3607c.394-.3934.788-.6557 1.314-.6557.986 0 1.511.6557 1.511 1.9016 0 1.6393-.985 2.8197-2.168 2.8197-.591 0-.985-.2623-1.314-.5902l-.46 2.2951h-.591l1.248-6.3607h.526l-.066.5902Zm-.526 2.8852c.263.3935.592.6558 1.183.6558.854 0 1.643-.9836 1.643-2.3607 0-.8524-.395-1.3115-1.052-1.3115-.46 0-.919.1968-1.248.7869l-.526 2.2295ZM142.049 36.2623l-1.446 2.0983h-.657l1.511-2.0983c-.591-.1967-.919-.6557-.919-1.1803 0-.5902.525-1.2459 1.576-1.2459h2.169l-.92 4.5245h-.592l.395-2.0983h-1.117Zm1.445-1.9672h-1.445c-.657 0-.986.3934-.986.7213 0 .459.263.6557.789.6557h1.314l.328-1.377ZM144.874 37.8361l1.905-4h.92l.526 4h.46l-.263 1.377h-.46l.066-.8525h-3.088l-.263.8525h-.46l.263-1.377h.394Zm2.628 0-.328-3.4099h-.132l-1.577 3.4099h2.037ZM149.21 36.4591c0-1.5738.986-2.7541 2.169-2.7541.985 0 1.576.7868 1.576 1.9672 0 1.5082-.985 2.7541-2.168 2.7541-.92 0-1.577-.7213-1.577-1.9672Zm.592.1311c0 .8525.46 1.3115 1.051 1.3115.788 0 1.577-.9836 1.577-2.2951 0-.8525-.46-1.3771-1.051-1.3771-.789 0-1.577.9837-1.577 2.3607ZM158.211 34.3607l-1.971 3.9999h-.591l-.591-3.9999-.789 3.9999h-.591l.92-4.5245h.985l.526 3.9344 1.905-3.9344H159l-.92 4.5245h-.591l.722-3.9999Z"/></g><defs><clipPath id="a"><path fill="#fff" d="M0 0h159v40H0z"/></clipPath></defs></svg>