<svg width="40" height="40" fill="none" xmlns="http://www.w3.org/2000/svg"><path fill="#4A76A8" d="M0 0h40v40H0z"/><path d="M29.3766 21.884c.8625.7936 1.7728 1.5402 2.5463 2.4138.3417.3882.6652.7888.9127 1.2393.3507.6405.0331 1.3452-.5763 1.3835l-3.7877-.0017c-.977.0764-1.7563-.2942-2.4116-.9237-.5244-.5034-1.0101-1.0392-1.5143-1.5596-.2068-.2127-.4231-.4129-.6816-.5711-.5171-.3163-.9659-.2195-1.2614.2888-.3009.517-.3692 1.0893-.3988 1.6655-.0406.8405-.3102 1.0616-1.2061 1.1-1.9147.0851-3.7318-.1879-5.42-1.0982-1.4883-.8025-2.6423-1.9354-3.6469-3.218-1.9557-2.4973-3.45348-5.2416-4.79959-8.0628-.30301-.6356-.0814-.9768.66274-.9889 1.23566-.0226 2.47115-.021 3.70825-.0016.5023.0069.8347.2784 1.0287.7255.6685 1.5493 1.4865 3.0232 2.5133 4.3894.2735.3637.5523.7275.9493.9835.4393.2835.7737.1895.9804-.2717.1311-.2924.1885-.6073.2181-.9205.0979-1.0774.1108-2.153-.0609-3.2267-.1054-.67-.5059-1.1038-1.2154-1.2306-.362-.0646-.3081-.1916-.1328-.3863.3044-.3359.5908-.545 1.1616-.545h4.2808c.6739.1253.8235.4107.9158 1.0497l.0036 4.4813c-.0073.2474.1312.9816.604 1.1453.3784.1166.6278-.1687.8549-.3949 1.025-1.0251 1.7565-2.2367 2.41-3.4913.29-.5516.5394-1.1245.781-1.6969.1791-.4248.46-.6338.9677-.6245l4.12.0034c.1222 0 .2458.0017.3641.0208.6942.1115.8845.393.67 1.0319-.3378 1.0023-.9952 1.8377-1.6379 2.6769-.6871.896-1.4219 1.7613-2.1033 2.6626-.626.8231-.5763 1.2379.2013 1.9528Z" fill="#fff"/></svg>